<svg xmlns="http://www.w3.org/2000/svg" fill-rule="evenodd" viewBox="0 0 106 106" style="color-scheme: light dark; fill: light-dark(#794227,#a88758)">
  <path d="m16.5 83.38-.22-.25-.44-.55-5.17.25a1.5 1.5 0 0 1-1.43-2.14l2.2-4.67-.34-.64-.33-.62-5.1-.76a1.5 1.5 0 0 1-1-2.38l3.08-4.14-.22-.71-.2-.67-4.86-1.74a1.5 1.5 0 0 1-.5-2.52l3.83-3.47-.14-1.42-4.43-2.66a1.5 1.5 0 0 1 0-2.58l4.43-2.66.06-.68.08-.74-3.83-3.47a1.5 1.5 0 0 1 .5-2.52l4.86-1.74.2-.67.22-.7-3.07-4.15A1.5 1.5 0 0 1 5.66 32l5.11-.76.33-.62.35-.64-2.21-4.67a1.5 1.5 0 0 1 1.43-2.14l5.17.25.44-.55.46-.54-1.26-5.03a1.5 1.5 0 0 1 1.82-1.82l5.03 1.26.55-.46.54-.44-.25-5.17a1.5 1.5 0 0 1 2.14-1.43l4.67 2.2.64-.34.62-.33.76-5.1a1.5 1.5 0 0 1 2.38-1l4.14 3.08.71-.22.67-.2 1.74-4.86a1.5 1.5 0 0 1 2.52-.5l3.47 3.83 1.42-.14 2.66-4.43a1.5 1.5 0 0 1 2.58 0l2.66 4.43.68.06.74.08 3.47-3.83a1.5 1.5 0 0 1 2.52.5l1.74 4.86.67.2.7.22 4.15-3.07a1.5 1.5 0 0 1 2.38.98l.76 5.11.62.33.64.35 4.67-2.21a1.5 1.5 0 0 1 2.14 1.43l-.25 5.17.55.44.54.46 5.03-1.26a1.5 1.5 0 0 1 1.82 1.82l-1.26 5.03.46.55.44.54 5.17-.25a1.5 1.5 0 0 1 1.43 2.14l-2.2 4.67.34.64.33.62 5.1.76a1.5 1.5 0 0 1 1 2.38l-3.08 4.14.22.71.2.67 4.86 1.74a1.5 1.5 0 0 1 .5 2.52l-3.83 3.47.14 1.42 4.43 2.66a1.5 1.5 0 0 1 0 2.58l-4.43 2.66-.06.68-.08.74 3.83 3.47a1.5 1.5 0 0 1-.5 2.52l-4.86 1.74-.2.67-.22.7 3.07 4.15a1.5 1.5 0 0 1-.98 2.38l-5.11.76-.33.62-.35.64 2.21 4.67a1.5 1.5 0 0 1-1.43 2.14l-5.17-.25-.44.55-.46.54 1.26 5.03a1.5 1.5 0 0 1-1.82 1.82l-5.03-1.26-.55.46-.54.44.25 5.17a1.5 1.5 0 0 1-2.14 1.43l-4.67-2.2-.64.34-.62.33-.76 5.1a1.5 1.5 0 0 1-2.38 1l-4.14-3.08-.71.22-.67.2-1.74 4.86a1.5 1.5 0 0 1-2.52.5l-3.47-3.83-1.42.14-2.66 4.43a1.5 1.5 0 0 1-2.58 0l-2.66-4.43-.68-.06-.74-.08-3.47 3.83a1.5 1.5 0 0 1-2.52-.5l-1.74-4.86-.67-.2-.7-.22-4.15 3.07a1.5 1.5 0 0 1-2.38-.98l-.76-5.11-.62-.33-.64-.35-4.67 2.21a1.5 1.5 0 0 1-2.14-1.43l.25-5.17-.55-.44-.54-.46-5.03 1.26a1.5 1.5 0 0 1-1.82-1.82l1.15-4.6a1.99 1.99 0 0 0 2.79 1.08c1.57-.82 3.95-1.18 6.68-1.41a7.1 7.1 0 0 1 3 .65c1.69.67 3.07 1.56 3.07 1.56a2 2 0 0 0 1.32.31 2 2 0 0 0 1.01 1.01l.78.5c1.35.88 3.6 2.16 6.72 2.31l.77.02a38.5 38.5 0 0 0 20.05.1c1.11.92 2.7 1.7 5.52 1.7 3.71 0 5.7-1.57 7.95-3.5 1.04-.9 2.11-1.83 3.64-2.61l1.77-.9c2.4-1.2 4.12-2.11 5.14-3a4.2 4.2 0 0 0 1.61-3.26c0-1.16-.5-2.2-1.34-3.06a9.6 9.6 0 0 0-1.93-1.47 38.3 38.3 0 0 0 6-26.08l-6.26-3.2a3 3 0 0 1-1.3-4.03l3.18-6.25a38.65 38.65 0 0 0-21.87-18.18 11.55 11.55 0 0 0-1.64-2.03C60.9 12 57.48 10.73 53 10.73c-4.7 0-8.3 1.42-10.74 4.06-.47.5-.89 1.04-1.26 1.62a38.65 38.65 0 0 0-21.8 18.16l3.2 6.25a3 3 0 0 1-1.31 4.04l-6.26 3.19a38.3 38.3 0 0 0 4.82 24.16l-3.06 10.64a2 2 0 0 0-.08.53Z"/>
  <path d="M26.78 54.69s7.96-4.34 14.78.89l-3.81 13.1s-4.27-2.94-7.44-2.62a37.46 37.46 0 0 0-7.34 1.83l3.8-13.2ZM22.29 70.2s4.28-1.99 7.83-1.74c3.55.26 6.38 2.17 7 2.6l-3.86 13.25s-4.28-2.79-7.32-2.53c-3.05.25-5.68.71-7.44 1.62l3.8-13.2Zm16.82 2.15s4.07 2.64 6.73 2.58c2.62-.06 4.43-.27 8-1.66l.07-.05c-.08.05-3.81 13.12-3.81 13.12s-4.2 1.96-8 1.77c-3.8-.19-6.09-2.36-6.79-2.64l3.8-13.12Zm4.47-15.4L39.75 70s3.1 3.04 7.48 2.79c4.38-.26 6.75-1.64 7.33-1.83l3.8-13.14s-5.04 2.1-8.34 1.72a13.11 13.11 0 0 1-6.44-2.57Z"/>
  <path d="M38.84 52.37a14.55 14.55 0 0 0-6.09-.81c.33-.96.66-1.88 1.2-2.8.85-1.41 2.4-3.16 3.76-4.7a25.07 25.07 0 0 0 2.4-2.92c1.5-2.63 1.56-3.52 1.33-9.26a107 107 0 0 1-.35-8.73c0-2.7.94-5.19 2.62-7 2.11-2.27 5.23-3.42 9.29-3.42 7.72 0 11.88 4.09 12.34 12.15l.19 3.54c.36 7.16.43 8.65 4.27 13.3l.58.7c2.49 2.98 5.9 7.05 7.19 11.02 1.4 4.3 2.44 9.6 2.2 11.38a4.37 4.37 0 0 1-.45 1.62v.01c.5.2.94.54 1.23 1 .55.86.47 2.07.08 4.63-.18 1.18.87 2.25 1.9 2.87l.65.35c1.3.7 3.27 1.77 3.27 3.36 0 1.64-2 2.64-5.64 4.47l-1.79.9c-1.69.87-2.88 1.9-4.03 2.88-1.9 1.62-3.53 3.02-6.65 3.02-3.25 0-4.42-1.32-5.37-2.37-.5-.56-.89-1-1.49-1.16-1.65-.43-4.62-.41-6.8-.4h-1l-1.54-.03-.37-.01L52.9 82c3.83-.62 6.1-2.22 7.66-3.6l.61-.55c.84-.75 1.16-1.04 1.52-.89.36.15.39.61.43 1.37a9.1 9.1 0 0 1-.35 3 .1.1 0 0 0 .18.03c.3-.56.54-1.15.74-1.75.62-1.95-.08-5.02-.28-6.06-.44-2.23-.8-4.94.2-6.19l.02-.01c.73-.8 1.6-1.12 2.8-1h.02c.02-.59.1-1.19.61-1.82a4.52 4.52 0 0 1 3.46-1.48c.7 0 1.4.12 2.06.37.33.12.41 0 .18-.26-.3-.34-.69-.6-1.12-.75a.26.26 0 0 1-.15-.37s.72-1.54.31-5.17a15 15 0 0 0-1.07-4.1.16.16 0 0 0-.15-.12.16.16 0 0 0-.16.21 17.74 17.74 0 0 1 .46 5.6 8.6 8.6 0 0 1-.64 3.61.35.35 0 0 1-.25.2c-.69.1-1.36.25-2.03.44l-.55.18c-.66.21-.95.29-1.17.1-.22-.2-.17-.46-.1-.87.04-.22.09-.52.12-.9.43-4.73-.63-10.24-2.41-12.56a9.58 9.58 0 0 1-1.71-3.4 12.64 12.64 0 0 0-2.4-4.66c-.42-.54-1.59-2.6-.92-4.76.67-2.16.4-2.7-1.42-3.16-1.92-.48-4.24-1.3-4.38-2.5l-.01-.1c-.1-.6-.08-1.2.05-1.79.53-2.24 2.06-2.48 2.7-2.48h.04c1.46 0 2.67 1.2 2.67 2.67v.01c0 .7-.19 1.4-.54 2.01a.29.29 0 0 0 .04.36.28.28 0 0 0 .41-.03c.43-.57.88-1.5.88-3.27 0-2.32-1.44-3.93-3.5-3.93-1.1.01-2.13.51-2.81 1.37-.66.84-1.32 2.42-.64 5.23v.08c0 .17-.11.3-.27.34-.1.02-.2 0-.28-.07-1.14-.76-3.15-1.28-4.02-.41-.06.05-1.45 1.37-2.15 1.89l-.59.39c-.52.34-1.4.92-1.4 1.26 0 .45.86 1.5 2.44 2.58 1.71 1.15 2.93 1.05 7.27-.56 1.96-.72 2.38-1.06 2.77-1.39.27-.24.51-.6 1.03-.72.47-.1.88 0 1.12.3.25.34.28.79.08 1.15-.2.44-.6.54-1.24.7-.9.24-1.77.56-2.61.95a43.51 43.51 0 0 1-4.95 1.95l-.16.05c-.75.25-1.38.38-2.28.01a.16.16 0 0 0-.18.27c.28.33.63.61 1.01.83.84.38 4.57-1.3 6.8-2.31.65-.3 1.27-.58 1.8-.8a.84.84 0 0 1 1.04.27c.19.29.24.8-.27 1.27-.04.05-4.62 4.28-8.39 4.91a2.1 2.1 0 0 1-.38.03c-1.84 0-3.25-2.34-4.03-3.63l-.28-.44a.16.16 0 0 0-.3.07v.02c.02.42.06 1 .14 1.84.32 3.29-1.04 5.04-2.24 6.58-.27.34-.52.67-.75 1l-.43.61a13.4 13.4 0 0 0-1.77 3.12Zm40.3 28.86a21.68 21.68 0 0 0-5.47 3.44c-.9.73-1.77 1.42-2.78 1.95-1.62.86-4 1.05-5.35-1.24-.38-.64-.11-1.58.26-2.88.49-1.73 1.16-4.1.6-7.19-.16-.82-.3-1.53-.4-2.14-.46-2.38-.63-3.27-.46-3.99.1-.39.55-.48.95-.48l.42.03c.21.73.6 1.4 1.13 1.95a5.06 5.06 0 0 0 3.79 1.42c.33.03 4.17.25 5.87-3.6.24.03.59.11.7.37.2.51-.05 1.43-.25 2.17-.15.53-.27 1-.26 1.35.05 2.57 1.77 3.66 4.15 5.17l.9.57c.3.2.46.38.46.54-.09.77-3.22 2.12-4.26 2.56ZM45.78 24.37c.9.03 1.69.6 2 1.45.32.89.3 1.67.04 2.08l-.06-.23a2.39 2.39 0 0 0-1.04-1.39 1.83 1.83 0 0 0-1.44-.23c-.68.18-1.35.8-1.43 3.02a3.49 3.49 0 0 1 .15-3.7 2.3 2.3 0 0 1 1.78-1Z"/>
</svg>
